<mxfile host="Electron" agent="Mozilla/5.0 (Macintosh; Intel Mac OS X 10_15_7) AppleWebKit/537.36 (KHTML, like Gecko) draw.io/26.0.16 Chrome/132.0.6834.196 Electron/34.2.0 Safari/537.36" version="26.0.16">
  <diagram name="HLD" id="eTEe7x4ZIcKYtDVM1YVj">
    <mxGraphModel dx="1368" dy="2129" grid="1" gridSize="10" guides="1" tooltips="1" connect="1" arrows="1" fold="1" page="1" pageScale="1" pageWidth="850" pageHeight="1100" math="0" shadow="0">
      <root>
        <mxCell id="0" />
        <mxCell id="1" parent="0" />
        <mxCell id="8eAeLmn8yFaLi3UXi1aJ-64" style="edgeStyle=orthogonalEdgeStyle;rounded=0;orthogonalLoop=1;jettySize=auto;html=1;startArrow=oval;startFill=1;endArrow=oval;endFill=1;" parent="1" source="8eAeLmn8yFaLi3UXi1aJ-1" target="8eAeLmn8yFaLi3UXi1aJ-60" edge="1">
          <mxGeometry relative="1" as="geometry" />
        </mxCell>
        <mxCell id="8eAeLmn8yFaLi3UXi1aJ-73" style="edgeStyle=orthogonalEdgeStyle;rounded=0;orthogonalLoop=1;jettySize=auto;html=1;entryX=0;entryY=0.5;entryDx=0;entryDy=0;dashed=1;startArrow=oval;startFill=1;" parent="1" source="8eAeLmn8yFaLi3UXi1aJ-1" target="8eAeLmn8yFaLi3UXi1aJ-71" edge="1">
          <mxGeometry relative="1" as="geometry">
            <Array as="points">
              <mxPoint x="990" y="-290" />
              <mxPoint x="990" y="-290" />
            </Array>
          </mxGeometry>
        </mxCell>
        <mxCell id="8eAeLmn8yFaLi3UXi1aJ-1" value="Base infractcuture | Validtors + Collators" style="swimlane;whiteSpace=wrap;html=1;" parent="1" vertex="1">
          <mxGeometry x="80" y="-381" width="750" height="310" as="geometry" />
        </mxCell>
        <mxCell id="8eAeLmn8yFaLi3UXi1aJ-5" value="AVG ~ TCP" style="edgeStyle=orthogonalEdgeStyle;rounded=0;orthogonalLoop=1;jettySize=auto;html=1;entryX=0;entryY=0.5;entryDx=0;entryDy=0;startArrow=classic;startFill=1;" parent="8eAeLmn8yFaLi3UXi1aJ-1" source="8eAeLmn8yFaLi3UXi1aJ-2" target="8eAeLmn8yFaLi3UXi1aJ-3" edge="1">
          <mxGeometry x="-0.0143" y="20" relative="1" as="geometry">
            <mxPoint as="offset" />
          </mxGeometry>
        </mxCell>
        <mxCell id="8eAeLmn8yFaLi3UXi1aJ-11" style="edgeStyle=orthogonalEdgeStyle;rounded=0;orthogonalLoop=1;jettySize=auto;html=1;startArrow=classic;startFill=1;" parent="8eAeLmn8yFaLi3UXi1aJ-1" source="8eAeLmn8yFaLi3UXi1aJ-2" target="8eAeLmn8yFaLi3UXi1aJ-10" edge="1">
          <mxGeometry relative="1" as="geometry" />
        </mxCell>
        <mxCell id="8eAeLmn8yFaLi3UXi1aJ-2" value="VM1: qf-node:&lt;br&gt;Validator + Collator&amp;nbsp;1" style="shape=process;whiteSpace=wrap;html=1;backgroundOutline=1;" parent="8eAeLmn8yFaLi3UXi1aJ-1" vertex="1">
          <mxGeometry x="70" y="80" width="120" height="60" as="geometry" />
        </mxCell>
        <mxCell id="8eAeLmn8yFaLi3UXi1aJ-6" style="edgeStyle=orthogonalEdgeStyle;rounded=0;orthogonalLoop=1;jettySize=auto;html=1;startArrow=classic;startFill=1;" parent="8eAeLmn8yFaLi3UXi1aJ-1" source="8eAeLmn8yFaLi3UXi1aJ-3" target="8eAeLmn8yFaLi3UXi1aJ-4" edge="1">
          <mxGeometry relative="1" as="geometry" />
        </mxCell>
        <mxCell id="8eAeLmn8yFaLi3UXi1aJ-15" value="AVG ~ TCP" style="edgeLabel;html=1;align=center;verticalAlign=middle;resizable=0;points=[];" parent="8eAeLmn8yFaLi3UXi1aJ-6" vertex="1" connectable="0">
          <mxGeometry x="-0.3927" y="1" relative="1" as="geometry">
            <mxPoint x="20" y="-19" as="offset" />
          </mxGeometry>
        </mxCell>
        <mxCell id="8eAeLmn8yFaLi3UXi1aJ-3" value="VM2: qf-node:&lt;br&gt;Validator + Collator&amp;nbsp;2" style="shape=process;whiteSpace=wrap;html=1;backgroundOutline=1;" parent="8eAeLmn8yFaLi3UXi1aJ-1" vertex="1">
          <mxGeometry x="320" y="80" width="120" height="60" as="geometry" />
        </mxCell>
        <mxCell id="8eAeLmn8yFaLi3UXi1aJ-4" value="VM3: qf-node:&lt;br&gt;Validator + Collator 3" style="shape=process;whiteSpace=wrap;html=1;backgroundOutline=1;" parent="8eAeLmn8yFaLi3UXi1aJ-1" vertex="1">
          <mxGeometry x="580" y="80" width="120" height="60" as="geometry" />
        </mxCell>
        <mxCell id="8eAeLmn8yFaLi3UXi1aJ-10" value="data" style="shape=cylinder3;whiteSpace=wrap;html=1;boundedLbl=1;backgroundOutline=1;size=15;" parent="8eAeLmn8yFaLi3UXi1aJ-1" vertex="1">
          <mxGeometry x="100" y="181" width="60" height="80" as="geometry" />
        </mxCell>
        <mxCell id="8eAeLmn8yFaLi3UXi1aJ-12" value="data" style="shape=cylinder3;whiteSpace=wrap;html=1;boundedLbl=1;backgroundOutline=1;size=15;" parent="8eAeLmn8yFaLi3UXi1aJ-1" vertex="1">
          <mxGeometry x="350" y="181" width="60" height="80" as="geometry" />
        </mxCell>
        <mxCell id="8eAeLmn8yFaLi3UXi1aJ-13" value="data" style="shape=cylinder3;whiteSpace=wrap;html=1;boundedLbl=1;backgroundOutline=1;size=15;" parent="8eAeLmn8yFaLi3UXi1aJ-1" vertex="1">
          <mxGeometry x="610" y="181" width="60" height="80" as="geometry" />
        </mxCell>
        <mxCell id="8eAeLmn8yFaLi3UXi1aJ-14" style="edgeStyle=orthogonalEdgeStyle;rounded=0;orthogonalLoop=1;jettySize=auto;html=1;entryX=0.5;entryY=0;entryDx=0;entryDy=0;entryPerimeter=0;startArrow=classic;startFill=1;" parent="8eAeLmn8yFaLi3UXi1aJ-1" source="8eAeLmn8yFaLi3UXi1aJ-4" target="8eAeLmn8yFaLi3UXi1aJ-13" edge="1">
          <mxGeometry relative="1" as="geometry" />
        </mxCell>
        <mxCell id="8eAeLmn8yFaLi3UXi1aJ-16" style="edgeStyle=orthogonalEdgeStyle;rounded=0;orthogonalLoop=1;jettySize=auto;html=1;entryX=0.5;entryY=0;entryDx=0;entryDy=0;entryPerimeter=0;startArrow=classic;startFill=1;" parent="8eAeLmn8yFaLi3UXi1aJ-1" source="8eAeLmn8yFaLi3UXi1aJ-3" target="8eAeLmn8yFaLi3UXi1aJ-12" edge="1">
          <mxGeometry relative="1" as="geometry" />
        </mxCell>
        <mxCell id="8eAeLmn8yFaLi3UXi1aJ-51" style="edgeStyle=orthogonalEdgeStyle;rounded=0;orthogonalLoop=1;jettySize=auto;html=1;startArrow=classic;startFill=1;" parent="1" source="8eAeLmn8yFaLi3UXi1aJ-17" target="8eAeLmn8yFaLi3UXi1aJ-40" edge="1">
          <mxGeometry relative="1" as="geometry" />
        </mxCell>
        <mxCell id="8eAeLmn8yFaLi3UXi1aJ-52" style="edgeStyle=orthogonalEdgeStyle;rounded=0;orthogonalLoop=1;jettySize=auto;html=1;startArrow=classic;startFill=1;" parent="1" source="8eAeLmn8yFaLi3UXi1aJ-17" target="8eAeLmn8yFaLi3UXi1aJ-37" edge="1">
          <mxGeometry relative="1" as="geometry" />
        </mxCell>
        <mxCell id="8eAeLmn8yFaLi3UXi1aJ-17" value="CloudFlare CDN for W2/W3" style="shape=process;whiteSpace=wrap;html=1;backgroundOutline=1;" parent="1" vertex="1">
          <mxGeometry x="385" y="200" width="170" height="60" as="geometry" />
        </mxCell>
        <mxCell id="S5pNUgwe8TNOUD60_Mkd-13" style="edgeStyle=orthogonalEdgeStyle;rounded=0;orthogonalLoop=1;jettySize=auto;html=1;entryX=0.5;entryY=0;entryDx=0;entryDy=0;" parent="1" source="8eAeLmn8yFaLi3UXi1aJ-18" target="8eAeLmn8yFaLi3UXi1aJ-92" edge="1">
          <mxGeometry relative="1" as="geometry">
            <Array as="points">
              <mxPoint x="620" y="290" />
              <mxPoint x="620" y="215" />
            </Array>
          </mxGeometry>
        </mxCell>
        <mxCell id="S5pNUgwe8TNOUD60_Mkd-14" value="RPC" style="edgeLabel;html=1;align=center;verticalAlign=middle;resizable=0;points=[];" parent="S5pNUgwe8TNOUD60_Mkd-13" vertex="1" connectable="0">
          <mxGeometry x="-0.0666" y="3" relative="1" as="geometry">
            <mxPoint as="offset" />
          </mxGeometry>
        </mxCell>
        <mxCell id="8eAeLmn8yFaLi3UXi1aJ-18" value="Anycast DNS" style="shape=process;whiteSpace=wrap;html=1;backgroundOutline=1;" parent="1" vertex="1">
          <mxGeometry x="385" y="260" width="170" height="60" as="geometry" />
        </mxCell>
        <mxCell id="8eAeLmn8yFaLi3UXi1aJ-19" value="+ Anycast" style="text;html=1;align=center;verticalAlign=middle;whiteSpace=wrap;rounded=0;" parent="1" vertex="1">
          <mxGeometry x="570" y="160" width="60" height="30" as="geometry" />
        </mxCell>
        <mxCell id="8eAeLmn8yFaLi3UXi1aJ-34" value="Base infractcuture | RPC" style="swimlane;whiteSpace=wrap;html=1;" parent="1" vertex="1">
          <mxGeometry x="80" y="-30" width="620" height="200" as="geometry" />
        </mxCell>
        <mxCell id="8eAeLmn8yFaLi3UXi1aJ-37" value="qf-node: RPC Node 1" style="shape=process;whiteSpace=wrap;html=1;backgroundOutline=1;" parent="8eAeLmn8yFaLi3UXi1aJ-34" vertex="1">
          <mxGeometry x="70" y="80" width="120" height="60" as="geometry" />
        </mxCell>
        <mxCell id="8eAeLmn8yFaLi3UXi1aJ-99" style="edgeStyle=orthogonalEdgeStyle;rounded=0;orthogonalLoop=1;jettySize=auto;html=1;startArrow=classic;startFill=1;" parent="8eAeLmn8yFaLi3UXi1aJ-34" source="8eAeLmn8yFaLi3UXi1aJ-40" target="8eAeLmn8yFaLi3UXi1aJ-98" edge="1">
          <mxGeometry relative="1" as="geometry">
            <Array as="points">
              <mxPoint x="440" y="150" />
              <mxPoint x="490" y="150" />
              <mxPoint x="490" y="130" />
            </Array>
          </mxGeometry>
        </mxCell>
        <mxCell id="8eAeLmn8yFaLi3UXi1aJ-40" value="qf-node:&amp;nbsp;RPC Node 2" style="shape=process;whiteSpace=wrap;html=1;backgroundOutline=1;" parent="8eAeLmn8yFaLi3UXi1aJ-34" vertex="1">
          <mxGeometry x="330" y="80" width="120" height="60" as="geometry" />
        </mxCell>
        <mxCell id="8eAeLmn8yFaLi3UXi1aJ-98" value="data" style="shape=cylinder3;whiteSpace=wrap;html=1;boundedLbl=1;backgroundOutline=1;size=15;" parent="8eAeLmn8yFaLi3UXi1aJ-34" vertex="1">
          <mxGeometry x="470" y="110" width="60" height="80" as="geometry" />
        </mxCell>
        <mxCell id="S5pNUgwe8TNOUD60_Mkd-2" value="RR TCP Proxy" style="shape=process;whiteSpace=wrap;html=1;backgroundOutline=1;" parent="8eAeLmn8yFaLi3UXi1aJ-34" vertex="1">
          <mxGeometry x="70" y="30" width="120" height="40" as="geometry" />
        </mxCell>
        <mxCell id="S5pNUgwe8TNOUD60_Mkd-4" value="RR TCP proxy" style="shape=process;whiteSpace=wrap;html=1;backgroundOutline=1;" parent="8eAeLmn8yFaLi3UXi1aJ-34" vertex="1">
          <mxGeometry x="330" y="30" width="120" height="40" as="geometry" />
        </mxCell>
        <mxCell id="S5pNUgwe8TNOUD60_Mkd-9" value="data" style="shape=cylinder3;whiteSpace=wrap;html=1;boundedLbl=1;backgroundOutline=1;size=15;" parent="8eAeLmn8yFaLi3UXi1aJ-34" vertex="1">
          <mxGeometry x="200" y="110" width="60" height="80" as="geometry" />
        </mxCell>
        <mxCell id="S5pNUgwe8TNOUD60_Mkd-10" style="edgeStyle=orthogonalEdgeStyle;rounded=0;orthogonalLoop=1;jettySize=auto;html=1;entryX=0;entryY=0.5;entryDx=0;entryDy=0;entryPerimeter=0;startArrow=classic;startFill=1;" parent="8eAeLmn8yFaLi3UXi1aJ-34" source="8eAeLmn8yFaLi3UXi1aJ-37" target="S5pNUgwe8TNOUD60_Mkd-9" edge="1">
          <mxGeometry relative="1" as="geometry">
            <Array as="points">
              <mxPoint x="160" y="150" />
            </Array>
          </mxGeometry>
        </mxCell>
        <mxCell id="8eAeLmn8yFaLi3UXi1aJ-48" style="edgeStyle=orthogonalEdgeStyle;rounded=0;orthogonalLoop=1;jettySize=auto;html=1;entryX=0.75;entryY=1;entryDx=0;entryDy=0;startArrow=classic;startFill=1;exitX=0.5;exitY=0;exitDx=0;exitDy=0;" parent="1" source="S5pNUgwe8TNOUD60_Mkd-4" target="8eAeLmn8yFaLi3UXi1aJ-3" edge="1">
          <mxGeometry relative="1" as="geometry">
            <Array as="points">
              <mxPoint x="470" y="-40" />
              <mxPoint x="550" y="-40" />
              <mxPoint x="550" y="-200" />
              <mxPoint x="490" y="-200" />
            </Array>
          </mxGeometry>
        </mxCell>
        <mxCell id="8eAeLmn8yFaLi3UXi1aJ-57" value="VM Backup" style="shape=cylinder3;whiteSpace=wrap;html=1;boundedLbl=1;backgroundOutline=1;size=15;" parent="1" vertex="1">
          <mxGeometry x="980" y="-151" width="60" height="80" as="geometry" />
        </mxCell>
        <mxCell id="8eAeLmn8yFaLi3UXi1aJ-58" style="edgeStyle=orthogonalEdgeStyle;rounded=0;orthogonalLoop=1;jettySize=auto;html=1;entryX=0;entryY=0.5;entryDx=0;entryDy=0;entryPerimeter=0;dashed=1;startArrow=oval;startFill=1;exitX=1;exitY=0.75;exitDx=0;exitDy=0;" parent="1" source="8eAeLmn8yFaLi3UXi1aJ-1" target="8eAeLmn8yFaLi3UXi1aJ-57" edge="1">
          <mxGeometry relative="1" as="geometry" />
        </mxCell>
        <mxCell id="8eAeLmn8yFaLi3UXi1aJ-68" value="perodic backup" style="edgeLabel;html=1;align=center;verticalAlign=middle;resizable=0;points=[];" parent="8eAeLmn8yFaLi3UXi1aJ-58" vertex="1" connectable="0">
          <mxGeometry x="0.2315" y="5" relative="1" as="geometry">
            <mxPoint x="-17" y="-44" as="offset" />
          </mxGeometry>
        </mxCell>
        <mxCell id="8eAeLmn8yFaLi3UXi1aJ-59" value="PolkaDot" style="shape=process;whiteSpace=wrap;html=1;backgroundOutline=1;" parent="1" vertex="1">
          <mxGeometry x="395" y="-690" width="120" height="60" as="geometry" />
        </mxCell>
        <mxCell id="8eAeLmn8yFaLi3UXi1aJ-61" style="edgeStyle=orthogonalEdgeStyle;rounded=0;orthogonalLoop=1;jettySize=auto;html=1;startArrow=classic;startFill=1;" parent="1" source="8eAeLmn8yFaLi3UXi1aJ-60" target="8eAeLmn8yFaLi3UXi1aJ-59" edge="1">
          <mxGeometry relative="1" as="geometry" />
        </mxCell>
        <mxCell id="8eAeLmn8yFaLi3UXi1aJ-60" value="Parachain" style="shape=process;whiteSpace=wrap;html=1;backgroundOutline=1;" parent="1" vertex="1">
          <mxGeometry x="395" y="-550" width="120" height="60" as="geometry" />
        </mxCell>
        <mxCell id="8eAeLmn8yFaLi3UXi1aJ-66" style="edgeStyle=orthogonalEdgeStyle;rounded=0;orthogonalLoop=1;jettySize=auto;html=1;startArrow=none;startFill=0;dashed=1;" parent="1" source="8eAeLmn8yFaLi3UXi1aJ-65" target="8eAeLmn8yFaLi3UXi1aJ-57" edge="1">
          <mxGeometry relative="1" as="geometry">
            <Array as="points">
              <mxPoint x="1140" y="-150" />
              <mxPoint x="1140" y="-111" />
            </Array>
          </mxGeometry>
        </mxCell>
        <mxCell id="8eAeLmn8yFaLi3UXi1aJ-67" value="Manual Restore" style="edgeLabel;html=1;align=center;verticalAlign=middle;resizable=0;points=[];rotation=0;" parent="8eAeLmn8yFaLi3UXi1aJ-66" vertex="1" connectable="0">
          <mxGeometry x="-0.2611" y="2" relative="1" as="geometry">
            <mxPoint x="18" y="58" as="offset" />
          </mxGeometry>
        </mxCell>
        <mxCell id="8eAeLmn8yFaLi3UXi1aJ-80" style="edgeStyle=orthogonalEdgeStyle;rounded=0;orthogonalLoop=1;jettySize=auto;html=1;entryX=0.5;entryY=1;entryDx=0;entryDy=0;dashed=1;" parent="1" source="8eAeLmn8yFaLi3UXi1aJ-65" target="8eAeLmn8yFaLi3UXi1aJ-79" edge="1">
          <mxGeometry relative="1" as="geometry" />
        </mxCell>
        <mxCell id="S5pNUgwe8TNOUD60_Mkd-15" style="edgeStyle=orthogonalEdgeStyle;rounded=0;orthogonalLoop=1;jettySize=auto;html=1;dashed=1;" parent="1" source="8eAeLmn8yFaLi3UXi1aJ-65" target="8eAeLmn8yFaLi3UXi1aJ-128" edge="1">
          <mxGeometry relative="1" as="geometry" />
        </mxCell>
        <mxCell id="S5pNUgwe8TNOUD60_Mkd-16" value="Manual Restore" style="edgeLabel;html=1;align=center;verticalAlign=middle;resizable=0;points=[];" parent="S5pNUgwe8TNOUD60_Mkd-15" vertex="1" connectable="0">
          <mxGeometry x="0.3591" y="-1" relative="1" as="geometry">
            <mxPoint as="offset" />
          </mxGeometry>
        </mxCell>
        <mxCell id="8eAeLmn8yFaLi3UXi1aJ-65" value="Admin" style="shape=umlActor;verticalLabelPosition=bottom;verticalAlign=top;html=1;outlineConnect=0;" parent="1" vertex="1">
          <mxGeometry x="1240" y="-180" width="30" height="60" as="geometry" />
        </mxCell>
        <mxCell id="8eAeLmn8yFaLi3UXi1aJ-70" style="edgeStyle=orthogonalEdgeStyle;rounded=0;orthogonalLoop=1;jettySize=auto;html=1;startArrow=classic;startFill=1;entryX=0.25;entryY=1;entryDx=0;entryDy=0;" parent="1" source="8eAeLmn8yFaLi3UXi1aJ-69" target="8eAeLmn8yFaLi3UXi1aJ-18" edge="1">
          <mxGeometry relative="1" as="geometry" />
        </mxCell>
        <mxCell id="8eAeLmn8yFaLi3UXi1aJ-69" value="dApp" style="shape=umlActor;verticalLabelPosition=bottom;verticalAlign=top;html=1;outlineConnect=0;" parent="1" vertex="1">
          <mxGeometry x="395" y="609" width="30" height="60" as="geometry" />
        </mxCell>
        <mxCell id="8eAeLmn8yFaLi3UXi1aJ-71" value="VM (reused?): Monitoring &amp;amp; Alerting" style="shape=process;whiteSpace=wrap;html=1;backgroundOutline=1;" parent="1" vertex="1">
          <mxGeometry x="1050" y="-320" width="120" height="60" as="geometry" />
        </mxCell>
        <mxCell id="8eAeLmn8yFaLi3UXi1aJ-74" style="edgeStyle=orthogonalEdgeStyle;rounded=0;orthogonalLoop=1;jettySize=auto;html=1;entryX=0.5;entryY=0;entryDx=0;entryDy=0;entryPerimeter=0;startArrow=classic;startFill=1;" parent="1" source="8eAeLmn8yFaLi3UXi1aJ-71" target="8eAeLmn8yFaLi3UXi1aJ-65" edge="1">
          <mxGeometry relative="1" as="geometry" />
        </mxCell>
        <mxCell id="8eAeLmn8yFaLi3UXi1aJ-79" value="Limitations:&lt;br&gt;no L1 - L2 support" style="shape=process;whiteSpace=wrap;html=1;backgroundOutline=1;" parent="1" vertex="1">
          <mxGeometry x="1305" y="-310" width="120" height="60" as="geometry" />
        </mxCell>
        <mxCell id="8eAeLmn8yFaLi3UXi1aJ-82" style="edgeStyle=orthogonalEdgeStyle;rounded=0;orthogonalLoop=1;jettySize=auto;html=1;entryX=0.75;entryY=0;entryDx=0;entryDy=0;dashed=1;startArrow=oval;startFill=1;endArrow=oval;endFill=1;" parent="1" source="8eAeLmn8yFaLi3UXi1aJ-81" target="8eAeLmn8yFaLi3UXi1aJ-1" edge="1">
          <mxGeometry relative="1" as="geometry" />
        </mxCell>
        <mxCell id="8eAeLmn8yFaLi3UXi1aJ-81" value="&lt;h1 style=&quot;margin-top: 0px;&quot;&gt;Requirements:&lt;/h1&gt;&lt;p&gt;(1) No shared CPU&lt;br&gt;(2) No shared NVME&lt;br&gt;(3) No shared Netwoking&lt;br&gt;(3) No extra NATing&lt;br&gt;Ex: AWS c5&lt;/p&gt;" style="text;html=1;whiteSpace=wrap;overflow=hidden;rounded=0;" parent="1" vertex="1">
          <mxGeometry x="915" y="-720" width="325" height="120" as="geometry" />
        </mxCell>
        <mxCell id="8eAeLmn8yFaLi3UXi1aJ-91" style="edgeStyle=orthogonalEdgeStyle;rounded=0;orthogonalLoop=1;jettySize=auto;html=1;entryX=1;entryY=0.5;entryDx=0;entryDy=0;dashed=1;startArrow=classic;startFill=1;exitX=0;exitY=0.75;exitDx=0;exitDy=0;" parent="1" source="8eAeLmn8yFaLi3UXi1aJ-83" target="8eAeLmn8yFaLi3UXi1aJ-18" edge="1">
          <mxGeometry relative="1" as="geometry" />
        </mxCell>
        <mxCell id="S5pNUgwe8TNOUD60_Mkd-12" value="Sync with RPC nodes" style="edgeLabel;html=1;align=center;verticalAlign=middle;resizable=0;points=[];" parent="8eAeLmn8yFaLi3UXi1aJ-91" vertex="1" connectable="0">
          <mxGeometry x="-0.6368" y="1" relative="1" as="geometry">
            <mxPoint x="-100" y="4" as="offset" />
          </mxGeometry>
        </mxCell>
        <mxCell id="8eAeLmn8yFaLi3UXi1aJ-116" style="edgeStyle=orthogonalEdgeStyle;rounded=0;orthogonalLoop=1;jettySize=auto;html=1;entryX=0.5;entryY=1;entryDx=0;entryDy=0;dashed=1;startArrow=oval;startFill=1;" parent="1" source="8eAeLmn8yFaLi3UXi1aJ-83" target="8eAeLmn8yFaLi3UXi1aJ-71" edge="1">
          <mxGeometry relative="1" as="geometry" />
        </mxCell>
        <mxCell id="8eAeLmn8yFaLi3UXi1aJ-83" value="Base infractcuture | Archives" style="swimlane;whiteSpace=wrap;html=1;" parent="1" vertex="1">
          <mxGeometry x="870" y="70" width="440" height="290" as="geometry" />
        </mxCell>
        <mxCell id="8eAeLmn8yFaLi3UXi1aJ-84" value="qf-node: Arch node 1" style="shape=process;whiteSpace=wrap;html=1;backgroundOutline=1;" parent="8eAeLmn8yFaLi3UXi1aJ-83" vertex="1">
          <mxGeometry x="120" y="70" width="120" height="60" as="geometry" />
        </mxCell>
        <mxCell id="8eAeLmn8yFaLi3UXi1aJ-89" style="edgeStyle=orthogonalEdgeStyle;rounded=0;orthogonalLoop=1;jettySize=auto;html=1;" parent="8eAeLmn8yFaLi3UXi1aJ-83" source="8eAeLmn8yFaLi3UXi1aJ-85" target="8eAeLmn8yFaLi3UXi1aJ-88" edge="1">
          <mxGeometry relative="1" as="geometry" />
        </mxCell>
        <mxCell id="8eAeLmn8yFaLi3UXi1aJ-85" value="qf-node: Arch node 2" style="shape=process;whiteSpace=wrap;html=1;backgroundOutline=1;" parent="8eAeLmn8yFaLi3UXi1aJ-83" vertex="1">
          <mxGeometry x="295" y="70" width="120" height="60" as="geometry" />
        </mxCell>
        <mxCell id="8eAeLmn8yFaLi3UXi1aJ-86" value="data" style="shape=cylinder3;whiteSpace=wrap;html=1;boundedLbl=1;backgroundOutline=1;size=15;" parent="8eAeLmn8yFaLi3UXi1aJ-83" vertex="1">
          <mxGeometry x="150" y="170" width="60" height="80" as="geometry" />
        </mxCell>
        <mxCell id="8eAeLmn8yFaLi3UXi1aJ-87" style="edgeStyle=orthogonalEdgeStyle;rounded=0;orthogonalLoop=1;jettySize=auto;html=1;entryX=0.5;entryY=0;entryDx=0;entryDy=0;entryPerimeter=0;" parent="8eAeLmn8yFaLi3UXi1aJ-83" source="8eAeLmn8yFaLi3UXi1aJ-84" target="8eAeLmn8yFaLi3UXi1aJ-86" edge="1">
          <mxGeometry relative="1" as="geometry" />
        </mxCell>
        <mxCell id="8eAeLmn8yFaLi3UXi1aJ-88" value="data" style="shape=cylinder3;whiteSpace=wrap;html=1;boundedLbl=1;backgroundOutline=1;size=15;" parent="8eAeLmn8yFaLi3UXi1aJ-83" vertex="1">
          <mxGeometry x="325" y="170" width="60" height="80" as="geometry" />
        </mxCell>
        <mxCell id="8eAeLmn8yFaLi3UXi1aJ-131" style="edgeStyle=orthogonalEdgeStyle;rounded=0;orthogonalLoop=1;jettySize=auto;html=1;entryX=0;entryY=0.5;entryDx=0;entryDy=0;" parent="8eAeLmn8yFaLi3UXi1aJ-83" source="8eAeLmn8yFaLi3UXi1aJ-92" target="8eAeLmn8yFaLi3UXi1aJ-84" edge="1">
          <mxGeometry relative="1" as="geometry" />
        </mxCell>
        <mxCell id="8eAeLmn8yFaLi3UXi1aJ-132" style="edgeStyle=orthogonalEdgeStyle;rounded=0;orthogonalLoop=1;jettySize=auto;html=1;entryX=0.5;entryY=0;entryDx=0;entryDy=0;" parent="8eAeLmn8yFaLi3UXi1aJ-83" source="8eAeLmn8yFaLi3UXi1aJ-92" target="8eAeLmn8yFaLi3UXi1aJ-85" edge="1">
          <mxGeometry relative="1" as="geometry">
            <Array as="points">
              <mxPoint x="60" y="50" />
              <mxPoint x="355" y="50" />
            </Array>
          </mxGeometry>
        </mxCell>
        <mxCell id="8eAeLmn8yFaLi3UXi1aJ-92" value="RR&lt;div&gt;TCP Proxy&lt;/div&gt;" style="shape=process;whiteSpace=wrap;html=1;backgroundOutline=1;rotation=-90;" parent="8eAeLmn8yFaLi3UXi1aJ-83" vertex="1">
          <mxGeometry x="-20" y="115" width="120" height="60" as="geometry" />
        </mxCell>
        <mxCell id="8eAeLmn8yFaLi3UXi1aJ-115" style="edgeStyle=orthogonalEdgeStyle;rounded=0;orthogonalLoop=1;jettySize=auto;html=1;entryX=0;entryY=0.75;entryDx=0;entryDy=0;dashed=1;startArrow=oval;startFill=1;" parent="1" source="8eAeLmn8yFaLi3UXi1aJ-95" target="8eAeLmn8yFaLi3UXi1aJ-71" edge="1">
          <mxGeometry relative="1" as="geometry">
            <Array as="points">
              <mxPoint x="770" y="-20" />
              <mxPoint x="950" y="-20" />
              <mxPoint x="950" y="-275" />
            </Array>
          </mxGeometry>
        </mxCell>
        <mxCell id="8eAeLmn8yFaLi3UXi1aJ-137" style="edgeStyle=orthogonalEdgeStyle;rounded=0;orthogonalLoop=1;jettySize=auto;html=1;entryX=0.75;entryY=1;entryDx=0;entryDy=0;startArrow=oval;startFill=1;exitX=1;exitY=0.25;exitDx=0;exitDy=0;dashed=1;" parent="1" source="8eAeLmn8yFaLi3UXi1aJ-95" target="8eAeLmn8yFaLi3UXi1aJ-71" edge="1">
          <mxGeometry relative="1" as="geometry">
            <Array as="points">
              <mxPoint x="1630" y="489" />
              <mxPoint x="1630" y="-220" />
              <mxPoint x="1140" y="-220" />
            </Array>
          </mxGeometry>
        </mxCell>
        <mxCell id="8eAeLmn8yFaLi3UXi1aJ-95" value="Base infractcuture | Tools" style="swimlane;whiteSpace=wrap;html=1;" parent="1" vertex="1">
          <mxGeometry x="610" y="429" width="770" height="240" as="geometry" />
        </mxCell>
        <mxCell id="8eAeLmn8yFaLi3UXi1aJ-111" style="edgeStyle=orthogonalEdgeStyle;rounded=0;orthogonalLoop=1;jettySize=auto;html=1;exitX=0.5;exitY=0;exitDx=0;exitDy=0;exitPerimeter=0;" parent="8eAeLmn8yFaLi3UXi1aJ-95" source="8eAeLmn8yFaLi3UXi1aJ-102" target="8eAeLmn8yFaLi3UXi1aJ-110" edge="1">
          <mxGeometry relative="1" as="geometry">
            <Array as="points">
              <mxPoint x="680" y="50" />
              <mxPoint x="370" y="50" />
              <mxPoint x="370" y="110" />
            </Array>
          </mxGeometry>
        </mxCell>
        <mxCell id="8eAeLmn8yFaLi3UXi1aJ-96" value="VM 1:&amp;nbsp;qf-suid" style="shape=process;whiteSpace=wrap;html=1;backgroundOutline=1;" parent="8eAeLmn8yFaLi3UXi1aJ-95" vertex="1">
          <mxGeometry x="430" y="80" width="120" height="60" as="geometry" />
        </mxCell>
        <mxCell id="8eAeLmn8yFaLi3UXi1aJ-102" value="VMs: PG Part. Cluster (Master -&amp;gt; Slave)" style="shape=cylinder3;whiteSpace=wrap;html=1;boundedLbl=1;backgroundOutline=1;size=15;" parent="8eAeLmn8yFaLi3UXi1aJ-95" vertex="1">
          <mxGeometry x="630" y="70" width="100" height="80" as="geometry" />
        </mxCell>
        <mxCell id="8eAeLmn8yFaLi3UXi1aJ-103" style="edgeStyle=orthogonalEdgeStyle;rounded=0;orthogonalLoop=1;jettySize=auto;html=1;entryX=0;entryY=0.5;entryDx=0;entryDy=0;entryPerimeter=0;startArrow=classic;startFill=1;" parent="8eAeLmn8yFaLi3UXi1aJ-95" source="8eAeLmn8yFaLi3UXi1aJ-96" target="8eAeLmn8yFaLi3UXi1aJ-102" edge="1">
          <mxGeometry relative="1" as="geometry" />
        </mxCell>
        <mxCell id="8eAeLmn8yFaLi3UXi1aJ-113" style="edgeStyle=orthogonalEdgeStyle;rounded=0;orthogonalLoop=1;jettySize=auto;html=1;entryX=1;entryY=0.5;entryDx=0;entryDy=0;exitX=0.855;exitY=1;exitDx=0;exitDy=-4.35;exitPerimeter=0;" parent="8eAeLmn8yFaLi3UXi1aJ-95" source="8eAeLmn8yFaLi3UXi1aJ-102" target="8eAeLmn8yFaLi3UXi1aJ-112" edge="1">
          <mxGeometry relative="1" as="geometry">
            <Array as="points">
              <mxPoint x="716" y="231" />
              <mxPoint x="380" y="231" />
              <mxPoint x="380" y="180" />
            </Array>
          </mxGeometry>
        </mxCell>
        <mxCell id="8eAeLmn8yFaLi3UXi1aJ-106" value="VM 2:&amp;nbsp;qf-suid" style="shape=process;whiteSpace=wrap;html=1;backgroundOutline=1;" parent="8eAeLmn8yFaLi3UXi1aJ-95" vertex="1">
          <mxGeometry x="430" y="160" width="120" height="60" as="geometry" />
        </mxCell>
        <mxCell id="8eAeLmn8yFaLi3UXi1aJ-107" style="edgeStyle=orthogonalEdgeStyle;rounded=0;orthogonalLoop=1;jettySize=auto;html=1;entryX=0.5;entryY=1;entryDx=0;entryDy=0;entryPerimeter=0;startArrow=classic;startFill=1;" parent="8eAeLmn8yFaLi3UXi1aJ-95" source="8eAeLmn8yFaLi3UXi1aJ-106" target="8eAeLmn8yFaLi3UXi1aJ-102" edge="1">
          <mxGeometry relative="1" as="geometry" />
        </mxCell>
        <mxCell id="8eAeLmn8yFaLi3UXi1aJ-110" value="VM 1: gql-server" style="shape=process;whiteSpace=wrap;html=1;backgroundOutline=1;" parent="8eAeLmn8yFaLi3UXi1aJ-95" vertex="1">
          <mxGeometry x="110" y="80" width="120" height="60" as="geometry" />
        </mxCell>
        <mxCell id="8eAeLmn8yFaLi3UXi1aJ-112" value="VM 2:&amp;nbsp;gql-server" style="shape=process;whiteSpace=wrap;html=1;backgroundOutline=1;" parent="8eAeLmn8yFaLi3UXi1aJ-95" vertex="1">
          <mxGeometry x="110" y="150" width="120" height="60" as="geometry" />
        </mxCell>
        <mxCell id="8eAeLmn8yFaLi3UXi1aJ-119" value="+ Anycast" style="text;html=1;align=center;verticalAlign=middle;whiteSpace=wrap;rounded=0;" parent="8eAeLmn8yFaLi3UXi1aJ-95" vertex="1">
          <mxGeometry x="30" y="70" width="60" height="30" as="geometry" />
        </mxCell>
        <mxCell id="8eAeLmn8yFaLi3UXi1aJ-120" value="+ ACL" style="text;html=1;align=center;verticalAlign=middle;whiteSpace=wrap;rounded=0;" parent="8eAeLmn8yFaLi3UXi1aJ-95" vertex="1">
          <mxGeometry x="20" y="50" width="60" height="30" as="geometry" />
        </mxCell>
        <mxCell id="8eAeLmn8yFaLi3UXi1aJ-100" style="edgeStyle=orthogonalEdgeStyle;rounded=0;orthogonalLoop=1;jettySize=auto;html=1;entryX=0.75;entryY=1;entryDx=0;entryDy=0;exitX=0.5;exitY=0;exitDx=0;exitDy=0;" parent="1" source="8eAeLmn8yFaLi3UXi1aJ-96" target="8eAeLmn8yFaLi3UXi1aJ-18" edge="1">
          <mxGeometry relative="1" as="geometry">
            <Array as="points">
              <mxPoint x="1095" y="509" />
              <mxPoint x="1095" y="390" />
              <mxPoint x="513" y="390" />
              <mxPoint x="513" y="320" />
            </Array>
          </mxGeometry>
        </mxCell>
        <mxCell id="8eAeLmn8yFaLi3UXi1aJ-101" value="TCP/IP" style="edgeLabel;html=1;align=center;verticalAlign=middle;resizable=0;points=[];" parent="8eAeLmn8yFaLi3UXi1aJ-100" vertex="1" connectable="0">
          <mxGeometry x="-0.3322" y="-3" relative="1" as="geometry">
            <mxPoint as="offset" />
          </mxGeometry>
        </mxCell>
        <mxCell id="8eAeLmn8yFaLi3UXi1aJ-114" style="edgeStyle=orthogonalEdgeStyle;rounded=0;orthogonalLoop=1;jettySize=auto;html=1;entryX=0.5;entryY=1;entryDx=0;entryDy=0;" parent="1" source="8eAeLmn8yFaLi3UXi1aJ-106" target="8eAeLmn8yFaLi3UXi1aJ-18" edge="1">
          <mxGeometry relative="1" as="geometry">
            <Array as="points">
              <mxPoint x="1100" y="700" />
              <mxPoint x="470" y="700" />
            </Array>
          </mxGeometry>
        </mxCell>
        <mxCell id="8eAeLmn8yFaLi3UXi1aJ-117" style="edgeStyle=orthogonalEdgeStyle;rounded=0;orthogonalLoop=1;jettySize=auto;html=1;entryX=1;entryY=0.75;entryDx=0;entryDy=0;" parent="1" source="8eAeLmn8yFaLi3UXi1aJ-110" target="8eAeLmn8yFaLi3UXi1aJ-17" edge="1">
          <mxGeometry relative="1" as="geometry" />
        </mxCell>
        <mxCell id="8eAeLmn8yFaLi3UXi1aJ-118" style="edgeStyle=orthogonalEdgeStyle;rounded=0;orthogonalLoop=1;jettySize=auto;html=1;entryX=1;entryY=0.75;entryDx=0;entryDy=0;" parent="1" source="8eAeLmn8yFaLi3UXi1aJ-112" target="8eAeLmn8yFaLi3UXi1aJ-17" edge="1">
          <mxGeometry relative="1" as="geometry" />
        </mxCell>
        <mxCell id="8eAeLmn8yFaLi3UXi1aJ-123" style="edgeStyle=orthogonalEdgeStyle;rounded=0;orthogonalLoop=1;jettySize=auto;html=1;entryX=0;entryY=0.5;entryDx=0;entryDy=0;startArrow=classic;startFill=1;" parent="1" source="8eAeLmn8yFaLi3UXi1aJ-122" target="8eAeLmn8yFaLi3UXi1aJ-18" edge="1">
          <mxGeometry relative="1" as="geometry" />
        </mxCell>
        <mxCell id="8eAeLmn8yFaLi3UXi1aJ-122" value="BlockViewer" style="shape=umlActor;verticalLabelPosition=bottom;verticalAlign=top;html=1;outlineConnect=0;" parent="1" vertex="1">
          <mxGeometry x="220" y="540" width="30" height="60" as="geometry" />
        </mxCell>
        <mxCell id="8eAeLmn8yFaLi3UXi1aJ-126" value="VM Backup" style="shape=cylinder3;whiteSpace=wrap;html=1;boundedLbl=1;backgroundOutline=1;size=15;" parent="1" vertex="1">
          <mxGeometry x="1450" y="509" width="60" height="80" as="geometry" />
        </mxCell>
        <mxCell id="8eAeLmn8yFaLi3UXi1aJ-127" style="edgeStyle=orthogonalEdgeStyle;rounded=0;orthogonalLoop=1;jettySize=auto;html=1;entryX=0;entryY=0.5;entryDx=0;entryDy=0;entryPerimeter=0;dashed=1;exitX=1;exitY=0.5;exitDx=0;exitDy=0;" parent="1" source="8eAeLmn8yFaLi3UXi1aJ-95" target="8eAeLmn8yFaLi3UXi1aJ-126" edge="1">
          <mxGeometry relative="1" as="geometry" />
        </mxCell>
        <mxCell id="8eAeLmn8yFaLi3UXi1aJ-128" value="VM Backup" style="shape=cylinder3;whiteSpace=wrap;html=1;boundedLbl=1;backgroundOutline=1;size=15;" parent="1" vertex="1">
          <mxGeometry x="1420" y="90" width="60" height="80" as="geometry" />
        </mxCell>
        <mxCell id="8eAeLmn8yFaLi3UXi1aJ-129" style="edgeStyle=orthogonalEdgeStyle;rounded=0;orthogonalLoop=1;jettySize=auto;html=1;entryX=0;entryY=0.5;entryDx=0;entryDy=0;entryPerimeter=0;dashed=1;" parent="1" source="8eAeLmn8yFaLi3UXi1aJ-83" target="8eAeLmn8yFaLi3UXi1aJ-128" edge="1">
          <mxGeometry relative="1" as="geometry" />
        </mxCell>
        <mxCell id="8eAeLmn8yFaLi3UXi1aJ-134" style="edgeStyle=orthogonalEdgeStyle;rounded=0;orthogonalLoop=1;jettySize=auto;html=1;entryX=0.25;entryY=0;entryDx=0;entryDy=0;dashed=1;startArrow=oval;startFill=1;endArrow=oval;endFill=1;" parent="1" source="8eAeLmn8yFaLi3UXi1aJ-133" target="8eAeLmn8yFaLi3UXi1aJ-1" edge="1">
          <mxGeometry relative="1" as="geometry" />
        </mxCell>
        <mxCell id="8eAeLmn8yFaLi3UXi1aJ-133" value="BitWarden" style="shape=process;whiteSpace=wrap;html=1;backgroundOutline=1;" parent="1" vertex="1">
          <mxGeometry x="100" y="-530" width="120" height="60" as="geometry" />
        </mxCell>
        <mxCell id="S5pNUgwe8TNOUD60_Mkd-1" value="+ ACL" style="text;html=1;align=center;verticalAlign=middle;whiteSpace=wrap;rounded=0;" parent="1" vertex="1">
          <mxGeometry x="410" y="-71" width="60" height="30" as="geometry" />
        </mxCell>
        <mxCell id="S5pNUgwe8TNOUD60_Mkd-3" style="edgeStyle=orthogonalEdgeStyle;rounded=0;orthogonalLoop=1;jettySize=auto;html=1;entryX=0;entryY=0.75;entryDx=0;entryDy=0;startArrow=block;startFill=1;" parent="1" source="S5pNUgwe8TNOUD60_Mkd-2" target="8eAeLmn8yFaLi3UXi1aJ-2" edge="1">
          <mxGeometry relative="1" as="geometry">
            <Array as="points">
              <mxPoint x="210" y="-40" />
              <mxPoint x="130" y="-40" />
              <mxPoint x="130" y="-256" />
            </Array>
          </mxGeometry>
        </mxCell>
        <mxCell id="S5pNUgwe8TNOUD60_Mkd-5" style="edgeStyle=orthogonalEdgeStyle;rounded=0;orthogonalLoop=1;jettySize=auto;html=1;entryX=0;entryY=0.75;entryDx=0;entryDy=0;" parent="1" source="S5pNUgwe8TNOUD60_Mkd-2" target="8eAeLmn8yFaLi3UXi1aJ-3" edge="1">
          <mxGeometry relative="1" as="geometry">
            <Array as="points">
              <mxPoint x="210" y="-40" />
              <mxPoint x="350" y="-40" />
              <mxPoint x="350" y="-256" />
            </Array>
          </mxGeometry>
        </mxCell>
        <mxCell id="S5pNUgwe8TNOUD60_Mkd-6" style="edgeStyle=orthogonalEdgeStyle;rounded=0;orthogonalLoop=1;jettySize=auto;html=1;entryX=0.75;entryY=1;entryDx=0;entryDy=0;startArrow=classic;startFill=1;" parent="1" source="S5pNUgwe8TNOUD60_Mkd-4" target="8eAeLmn8yFaLi3UXi1aJ-2" edge="1">
          <mxGeometry relative="1" as="geometry">
            <Array as="points">
              <mxPoint x="470" y="-40" />
              <mxPoint x="270" y="-40" />
              <mxPoint x="270" y="-210" />
              <mxPoint x="240" y="-210" />
            </Array>
          </mxGeometry>
        </mxCell>
        <mxCell id="S5pNUgwe8TNOUD60_Mkd-7" style="edgeStyle=orthogonalEdgeStyle;rounded=0;orthogonalLoop=1;jettySize=auto;html=1;entryX=0.5;entryY=0;entryDx=0;entryDy=0;startArrow=classic;startFill=1;" parent="1" source="8eAeLmn8yFaLi3UXi1aJ-4" target="S5pNUgwe8TNOUD60_Mkd-4" edge="1">
          <mxGeometry relative="1" as="geometry">
            <Array as="points">
              <mxPoint x="680" y="-40" />
              <mxPoint x="470" y="-40" />
            </Array>
          </mxGeometry>
        </mxCell>
        <mxCell id="S5pNUgwe8TNOUD60_Mkd-8" style="edgeStyle=orthogonalEdgeStyle;rounded=0;orthogonalLoop=1;jettySize=auto;html=1;entryX=0;entryY=1;entryDx=0;entryDy=0;" parent="1" source="S5pNUgwe8TNOUD60_Mkd-2" target="8eAeLmn8yFaLi3UXi1aJ-4" edge="1">
          <mxGeometry relative="1" as="geometry">
            <Array as="points">
              <mxPoint x="210" y="-40" />
              <mxPoint x="660" y="-40" />
            </Array>
          </mxGeometry>
        </mxCell>
        <mxCell id="S5pNUgwe8TNOUD60_Mkd-11" value="+ ACL" style="text;html=1;align=center;verticalAlign=middle;whiteSpace=wrap;rounded=0;" parent="1" vertex="1">
          <mxGeometry x="340" y="170" width="60" height="30" as="geometry" />
        </mxCell>
        <mxCell id="S5pNUgwe8TNOUD60_Mkd-17" style="edgeStyle=orthogonalEdgeStyle;rounded=0;orthogonalLoop=1;jettySize=auto;html=1;entryX=0.5;entryY=0;entryDx=0;entryDy=0;entryPerimeter=0;dashed=1;" parent="1" source="8eAeLmn8yFaLi3UXi1aJ-65" target="8eAeLmn8yFaLi3UXi1aJ-126" edge="1">
          <mxGeometry relative="1" as="geometry">
            <Array as="points">
              <mxPoint x="1255" y="10" />
              <mxPoint x="1520" y="10" />
              <mxPoint x="1520" y="250" />
              <mxPoint x="1480" y="250" />
            </Array>
          </mxGeometry>
        </mxCell>
        <mxCell id="S5pNUgwe8TNOUD60_Mkd-19" value="&lt;h1 style=&quot;margin-top: 0px;&quot;&gt;H Level Design of QF TestNet infrastucture&amp;nbsp;&lt;/h1&gt;&lt;p&gt;(1) Operation Plane via Ansible&lt;br&gt;(2) Control Plane via GH + Ansible&lt;/p&gt;" style="text;html=1;whiteSpace=wrap;overflow=hidden;rounded=0;" parent="1" vertex="1">
          <mxGeometry x="40" y="-1070" width="810" height="150" as="geometry" />
        </mxCell>
        <mxCell id="S5pNUgwe8TNOUD60_Mkd-20" value="&lt;h1 style=&quot;margin-top: 0px;&quot;&gt;Requirements:&lt;/h1&gt;&lt;p&gt;If not managed, then:&lt;/p&gt;&lt;p&gt;(1) No shared CPU&lt;br&gt;(2) No shared NVME&lt;br&gt;(3) No shared Netwoking&lt;br&gt;(4) No extra NATing&lt;br&gt;Ex: AWS c5&lt;br&gt;(5) At least 2 VMs&lt;br&gt;&lt;br&gt;If managed, then:&lt;br&gt;(1) HA Cluster with patroni-like failover&amp;nbsp;&lt;/p&gt;" style="text;html=1;whiteSpace=wrap;overflow=hidden;rounded=0;" parent="1" vertex="1">
          <mxGeometry x="1640" y="240" width="325" height="290" as="geometry" />
        </mxCell>
        <mxCell id="S5pNUgwe8TNOUD60_Mkd-21" style="edgeStyle=orthogonalEdgeStyle;rounded=0;orthogonalLoop=1;jettySize=auto;html=1;entryX=0.855;entryY=0;entryDx=0;entryDy=4.35;entryPerimeter=0;startArrow=oval;startFill=1;endArrow=oval;endFill=1;dashed=1;" parent="1" source="S5pNUgwe8TNOUD60_Mkd-20" target="8eAeLmn8yFaLi3UXi1aJ-102" edge="1">
          <mxGeometry relative="1" as="geometry">
            <Array as="points">
              <mxPoint x="1320" y="385" />
              <mxPoint x="1320" y="503" />
            </Array>
          </mxGeometry>
        </mxCell>
        <mxCell id="S5pNUgwe8TNOUD60_Mkd-24" style="edgeStyle=orthogonalEdgeStyle;rounded=0;orthogonalLoop=1;jettySize=auto;html=1;entryX=0.5;entryY=1;entryDx=0;entryDy=0;dashed=1;startArrow=oval;startFill=1;endArrow=oval;endFill=1;" parent="1" source="S5pNUgwe8TNOUD60_Mkd-23" target="8eAeLmn8yFaLi3UXi1aJ-112" edge="1">
          <mxGeometry relative="1" as="geometry" />
        </mxCell>
        <mxCell id="S5pNUgwe8TNOUD60_Mkd-23" value="&lt;h1 style=&quot;margin-top: 0px;&quot;&gt;Notice:&lt;/h1&gt;&lt;p&gt;Should be &quot;rate limited&quot; by CF.&lt;/p&gt;" style="text;html=1;whiteSpace=wrap;overflow=hidden;rounded=0;" parent="1" vertex="1">
          <mxGeometry x="630" y="810" width="180" height="80" as="geometry" />
        </mxCell>
      </root>
    </mxGraphModel>
  </diagram>
</mxfile>
